<svg width="260" height="146" viewBox="0 0 260 146" fill="none" xmlns="http://www.w3.org/2000/svg">
<rect width="260" height="146" fill="white"/>
<path d="M81.544 98H79.4474L84.1584 84.9091H86.4403L91.1513 98H89.0547L85.3537 87.2869H85.2514L81.544 98ZM81.8956 92.8736H88.6967V94.5355H81.8956V92.8736ZM96.4055 98.1918C95.6129 98.1918 94.9055 97.9893 94.2834 97.5845C93.6655 97.1754 93.1797 96.5937 92.826 95.8395C92.4766 95.081 92.3018 94.1712 92.3018 93.1101C92.3018 92.049 92.4787 91.1413 92.8324 90.3871C93.1903 89.6328 93.6804 89.0554 94.3026 88.6548C94.9247 88.2543 95.63 88.054 96.4183 88.054C97.0277 88.054 97.5178 88.1562 97.8885 88.3608C98.2635 88.5611 98.5533 88.7955 98.7578 89.0639C98.9666 89.3324 99.1286 89.5689 99.2436 89.7734H99.3587V84.9091H101.27V98H99.4034V96.4723H99.2436C99.1286 96.6811 98.9624 96.9197 98.745 97.1882C98.532 97.4567 98.2379 97.6911 97.8629 97.8913C97.4879 98.0916 97.0021 98.1918 96.4055 98.1918ZM96.8274 96.5618C97.3771 96.5618 97.8416 96.4169 98.2209 96.1271C98.6044 95.8331 98.8942 95.4261 99.0902 94.9062C99.2905 94.3864 99.3906 93.7812 99.3906 93.0909C99.3906 92.4091 99.2926 91.8125 99.0966 91.3011C98.9006 90.7898 98.6129 90.3913 98.2337 90.1058C97.8544 89.8203 97.3857 89.6776 96.8274 89.6776C96.2521 89.6776 95.7727 89.8267 95.3892 90.125C95.0057 90.4233 94.7159 90.8303 94.5199 91.3459C94.3281 91.8615 94.2322 92.4432 94.2322 93.0909C94.2322 93.7472 94.3303 94.3374 94.5263 94.8615C94.7223 95.3857 95.0121 95.8011 95.3956 96.108C95.7834 96.4105 96.2607 96.5618 96.8274 96.5618ZM107.673 98.1918C106.881 98.1918 106.173 97.9893 105.551 97.5845C104.933 97.1754 104.447 96.5937 104.094 95.8395C103.744 95.081 103.569 94.1712 103.569 93.1101C103.569 92.049 103.746 91.1413 104.1 90.3871C104.458 89.6328 104.948 89.0554 105.57 88.6548C106.192 88.2543 106.898 88.054 107.686 88.054C108.295 88.054 108.785 88.1562 109.156 88.3608C109.531 88.5611 109.821 88.7955 110.025 89.0639C110.234 89.3324 110.396 89.5689 110.511 89.7734H110.626V84.9091H112.537V98H110.671V96.4723H110.511C110.396 96.6811 110.23 96.9197 110.013 97.1882C109.8 97.4567 109.506 97.6911 109.131 97.8913C108.756 98.0916 108.27 98.1918 107.673 98.1918ZM108.095 96.5618C108.645 96.5618 109.109 96.4169 109.488 96.1271C109.872 95.8331 110.162 95.4261 110.358 94.9062C110.558 94.3864 110.658 93.7812 110.658 93.0909C110.658 92.4091 110.56 91.8125 110.364 91.3011C110.168 90.7898 109.881 90.3913 109.501 90.1058C109.122 89.8203 108.653 89.6776 108.095 89.6776C107.52 89.6776 107.04 89.8267 106.657 90.125C106.273 90.4233 105.983 90.8303 105.787 91.3459C105.596 91.8615 105.5 92.4432 105.5 93.0909C105.5 93.7472 105.598 94.3374 105.794 94.8615C105.99 95.3857 106.28 95.8011 106.663 96.108C107.051 96.4105 107.528 96.5618 108.095 96.5618ZM120.182 98V84.9091H124.976C125.905 84.9091 126.675 85.0625 127.284 85.3693C127.893 85.6719 128.349 86.0831 128.652 86.603C128.954 87.1186 129.106 87.7003 129.106 88.348C129.106 88.8935 129.006 89.3537 128.805 89.7287C128.605 90.0994 128.336 90.3977 128 90.6236C127.667 90.8452 127.301 91.0071 126.9 91.1094V91.2372C127.335 91.2585 127.759 91.3991 128.172 91.6591C128.59 91.9148 128.935 92.2791 129.208 92.7521C129.481 93.2251 129.617 93.8004 129.617 94.478C129.617 95.147 129.459 95.7479 129.144 96.2805C128.833 96.8089 128.351 97.2287 127.699 97.5398C127.047 97.8466 126.214 98 125.2 98H120.182ZM122.157 96.3061H125.008C125.954 96.3061 126.632 96.1229 127.041 95.7564C127.45 95.3899 127.655 94.9318 127.655 94.3821C127.655 93.9687 127.55 93.5895 127.341 93.2443C127.133 92.8991 126.834 92.6243 126.447 92.4197C126.063 92.2152 125.607 92.1129 125.079 92.1129H122.157V96.3061ZM122.157 90.5724H124.804C125.247 90.5724 125.645 90.4872 125.999 90.3168C126.357 90.1463 126.64 89.9077 126.849 89.6009C127.062 89.2898 127.169 88.9233 127.169 88.5014C127.169 87.9602 126.979 87.5064 126.6 87.1399C126.221 86.7734 125.639 86.5902 124.855 86.5902H122.157V90.5724ZM134.664 98.2173C134.041 98.2173 133.479 98.1023 132.976 97.8722C132.473 97.6378 132.075 97.299 131.781 96.8558C131.491 96.4126 131.346 95.8693 131.346 95.2259C131.346 94.6719 131.453 94.2159 131.666 93.858C131.879 93.5 132.166 93.2166 132.529 93.0078C132.891 92.799 133.296 92.6413 133.743 92.5348C134.191 92.4283 134.646 92.3473 135.111 92.2919C135.699 92.2237 136.176 92.1683 136.543 92.1257C136.909 92.0788 137.176 92.0043 137.342 91.902C137.508 91.7997 137.591 91.6335 137.591 91.4034V91.3587C137.591 90.8004 137.433 90.3679 137.118 90.0611C136.807 89.7543 136.343 89.6009 135.725 89.6009C135.081 89.6009 134.574 89.7436 134.203 90.0291C133.837 90.3104 133.583 90.6236 133.443 90.9688L131.646 90.5597C131.86 89.9631 132.171 89.4815 132.58 89.1151C132.993 88.7443 133.468 88.4759 134.005 88.3097C134.542 88.1392 135.107 88.054 135.699 88.054C136.091 88.054 136.507 88.1009 136.945 88.1946C137.389 88.2841 137.802 88.4503 138.186 88.6932C138.573 88.9361 138.891 89.2834 139.138 89.7351C139.385 90.1825 139.509 90.7642 139.509 91.4801V98H137.642V96.6577H137.566C137.442 96.9048 137.257 97.1477 137.009 97.3864C136.762 97.625 136.445 97.8232 136.057 97.9808C135.669 98.1385 135.205 98.2173 134.664 98.2173ZM135.079 96.6832C135.607 96.6832 136.059 96.5788 136.434 96.37C136.813 96.1612 137.101 95.8885 137.297 95.5518C137.497 95.2109 137.597 94.8466 137.597 94.4588V93.1932C137.529 93.2614 137.397 93.3253 137.201 93.3849C137.009 93.4403 136.79 93.4893 136.543 93.532C136.296 93.5703 136.055 93.6065 135.82 93.6406C135.586 93.6705 135.39 93.696 135.232 93.7173C134.862 93.7642 134.523 93.843 134.216 93.9538C133.914 94.0646 133.671 94.2244 133.487 94.4332C133.308 94.6378 133.219 94.9105 133.219 95.2514C133.219 95.7244 133.394 96.0824 133.743 96.3253C134.093 96.5639 134.538 96.6832 135.079 96.6832ZM143.966 92.1705V98H142.054V88.1818H143.889V89.7798H144.01C144.236 89.2599 144.59 88.8423 145.071 88.527C145.557 88.2116 146.169 88.054 146.906 88.054C147.575 88.054 148.161 88.1946 148.664 88.4759C149.167 88.7528 149.556 89.1662 149.833 89.7159C150.11 90.2656 150.249 90.9453 150.249 91.755V98H148.338V91.9851C148.338 91.2734 148.152 90.7173 147.782 90.3168C147.411 89.9119 146.902 89.7095 146.254 89.7095C145.811 89.7095 145.417 89.8054 145.071 89.9972C144.73 90.1889 144.46 90.4702 144.26 90.8409C144.064 91.2074 143.966 91.6506 143.966 92.1705ZM154.723 92.1705V98H152.812V88.1818H154.647V89.7798H154.768C154.994 89.2599 155.348 88.8423 155.829 88.527C156.315 88.2116 156.926 88.054 157.664 88.054C158.333 88.054 158.919 88.1946 159.422 88.4759C159.924 88.7528 160.314 89.1662 160.591 89.7159C160.868 90.2656 161.007 90.9453 161.007 91.755V98H159.096V91.9851C159.096 91.2734 158.91 90.7173 158.539 90.3168C158.169 89.9119 157.659 89.7095 157.012 89.7095C156.569 89.7095 156.174 89.8054 155.829 89.9972C155.488 90.1889 155.218 90.4702 155.017 90.8409C154.821 91.2074 154.723 91.6506 154.723 92.1705ZM167.801 98.1982C166.834 98.1982 166.001 97.9915 165.302 97.5781C164.608 97.1605 164.071 96.5746 163.691 95.8203C163.316 95.0618 163.129 94.1733 163.129 93.1548C163.129 92.1491 163.316 91.2628 163.691 90.4957C164.071 89.7287 164.599 89.13 165.277 88.6996C165.958 88.2692 166.755 88.054 167.667 88.054C168.221 88.054 168.758 88.1456 169.278 88.3288C169.798 88.5121 170.265 88.7997 170.678 89.1918C171.091 89.5838 171.417 90.093 171.656 90.7195C171.895 91.3416 172.014 92.098 172.014 92.9886V93.6662H164.209V92.2344H170.141C170.141 91.7315 170.039 91.2862 169.834 90.8984C169.63 90.5064 169.342 90.1974 168.971 89.9716C168.605 89.7457 168.174 89.6328 167.68 89.6328C167.143 89.6328 166.674 89.7649 166.274 90.0291C165.877 90.2891 165.571 90.63 165.353 91.0518C165.14 91.4695 165.034 91.9233 165.034 92.4134V93.532C165.034 94.1882 165.149 94.7464 165.379 95.2067C165.613 95.6669 165.939 96.0185 166.357 96.2614C166.775 96.5 167.262 96.6193 167.821 96.6193C168.183 96.6193 168.513 96.5682 168.811 96.4659C169.11 96.3594 169.368 96.2017 169.585 95.9929C169.802 95.7841 169.968 95.5263 170.083 95.2195L171.892 95.5455C171.748 96.0781 171.488 96.5447 171.113 96.9453C170.742 97.3416 170.275 97.6506 169.713 97.8722C169.154 98.0895 168.517 98.1982 167.801 98.1982ZM174.134 98V88.1818H175.982V89.7415H176.084C176.263 89.2131 176.578 88.7976 177.03 88.495C177.486 88.1882 178.002 88.0348 178.577 88.0348C178.696 88.0348 178.837 88.0391 178.999 88.0476C179.165 88.0561 179.295 88.0668 179.389 88.0795V89.9077C179.312 89.8864 179.176 89.8629 178.98 89.8374C178.784 89.8075 178.588 89.7926 178.392 89.7926C177.94 89.7926 177.537 89.8885 177.183 90.0803C176.834 90.2678 176.557 90.5298 176.352 90.8665C176.148 91.1989 176.046 91.5781 176.046 92.0043V98H174.134Z" fill="#969696"/>
<g filter="url(#filter0_dd_314_2)">
<path d="M129.5 46.2917V66.7084" stroke="#949494" stroke-width="2" stroke-linecap="round" stroke-linejoin="round"/>
<path d="M119.292 56.5H139.708" stroke="#949494" stroke-width="2" stroke-linecap="round" stroke-linejoin="round"/>
</g>
<defs>
<filter id="filter0_dd_314_2" x="108" y="39" width="43" height="43" filterUnits="userSpaceOnUse" color-interpolation-filters="sRGB">
<feFlood flood-opacity="0" result="BackgroundImageFix"/>
<feColorMatrix in="SourceAlpha" type="matrix" values="0 0 0 0 0 0 0 0 0 0 0 0 0 0 0 0 0 0 127 0" result="hardAlpha"/>
<feOffset dy="4"/>
<feGaussianBlur stdDeviation="2"/>
<feComposite in2="hardAlpha" operator="out"/>
<feColorMatrix type="matrix" values="0 0 0 0 0 0 0 0 0 0 0 0 0 0 0 0 0 0 0.25 0"/>
<feBlend mode="normal" in2="BackgroundImageFix" result="effect1_dropShadow_314_2"/>
<feColorMatrix in="SourceAlpha" type="matrix" values="0 0 0 0 0 0 0 0 0 0 0 0 0 0 0 0 0 0 127 0" result="hardAlpha"/>
<feOffset dy="4"/>
<feGaussianBlur stdDeviation="2"/>
<feComposite in2="hardAlpha" operator="out"/>
<feColorMatrix type="matrix" values="0 0 0 0 0 0 0 0 0 0 0 0 0 0 0 0 0 0 0.25 0"/>
<feBlend mode="normal" in2="effect1_dropShadow_314_2" result="effect2_dropShadow_314_2"/>
<feBlend mode="normal" in="SourceGraphic" in2="effect2_dropShadow_314_2" result="shape"/>
</filter>
</defs>
</svg>
