<svg width="80" height="80" viewBox="0 0 80 80" fill="none" xmlns="http://www.w3.org/2000/svg">
<rect width="80" height="80" fill="white"/>
<line x1="41" y1="25" x2="41" y2="45" stroke="#969595" stroke-width="2"/>
<path d="M7.83736 60H6.32315L9.7255 50.5455H11.3736L14.7759 60H13.2617L10.5888 52.2628H10.5149L7.83736 60ZM8.09126 56.2976H13.0032V57.4979H8.09126V56.2976ZM18.5707 60.1385C17.9982 60.1385 17.4873 59.9923 17.038 59.6999C16.5917 59.4045 16.2409 58.9844 15.9854 58.4396C15.7331 57.8918 15.6069 57.2347 15.6069 56.4684C15.6069 55.7021 15.7346 55.0465 15.9901 54.5018C16.2486 53.957 16.6025 53.54 17.0518 53.2507C17.5012 52.9614 18.0105 52.8168 18.5799 52.8168C19.02 52.8168 19.3739 52.8906 19.6417 53.0384C19.9125 53.183 20.1218 53.3523 20.2695 53.5462C20.4203 53.7401 20.5373 53.9109 20.6204 54.0586H20.7035V50.5455H22.0838V60H20.7358V58.8967H20.6204C20.5373 59.0475 20.4173 59.2198 20.2603 59.4137C20.1064 59.6076 19.8941 59.7769 19.6232 59.9215C19.3524 60.0662 19.0015 60.1385 18.5707 60.1385ZM18.8754 58.9613C19.2724 58.9613 19.6078 58.8567 19.8817 58.6474C20.1587 58.435 20.368 58.1411 20.5096 57.7656C20.6542 57.3902 20.7266 56.9531 20.7266 56.4545C20.7266 55.9621 20.6558 55.5312 20.5142 55.1619C20.3726 54.7926 20.1649 54.5049 19.891 54.2987C19.6171 54.0924 19.2785 53.9893 18.8754 53.9893C18.4599 53.9893 18.1136 54.0971 17.8366 54.3125C17.5597 54.5279 17.3504 54.8219 17.2088 55.1942C17.0703 55.5666 17.0011 55.9867 17.0011 56.4545C17.0011 56.9285 17.0719 57.3548 17.2134 57.7333C17.355 58.1119 17.5643 58.4119 17.8413 58.6335C18.1213 58.852 18.466 58.9613 18.8754 58.9613ZM26.7084 60.1385C26.1359 60.1385 25.625 59.9923 25.1757 59.6999C24.7294 59.4045 24.3786 58.9844 24.1231 58.4396C23.8708 57.8918 23.7446 57.2347 23.7446 56.4684C23.7446 55.7021 23.8723 55.0465 24.1278 54.5018C24.3863 53.957 24.7402 53.54 25.1895 53.2507C25.6389 52.9614 26.1482 52.8168 26.7176 52.8168C27.1577 52.8168 27.5116 52.8906 27.7794 53.0384C28.0502 53.183 28.2595 53.3523 28.4072 53.5462C28.558 53.7401 28.675 53.9109 28.7581 54.0586H28.8412V50.5455H30.2215V60H28.8735V58.8967H28.7581C28.675 59.0475 28.555 59.2198 28.398 59.4137C28.2441 59.6076 28.0318 59.7769 27.7609 59.9215C27.4901 60.0662 27.1392 60.1385 26.7084 60.1385ZM27.0131 58.9613C27.4101 58.9613 27.7455 58.8567 28.0194 58.6474C28.2964 58.435 28.5057 58.1411 28.6473 57.7656C28.7919 57.3902 28.8643 56.9531 28.8643 56.4545C28.8643 55.9621 28.7935 55.5312 28.6519 55.1619C28.5103 54.7926 28.3026 54.5049 28.0287 54.2987C27.7548 54.0924 27.4162 53.9893 27.0131 53.9893C26.5976 53.9893 26.2513 54.0971 25.9743 54.3125C25.6974 54.5279 25.4881 54.8219 25.3465 55.1942C25.208 55.5666 25.1388 55.9867 25.1388 56.4545C25.1388 56.9285 25.2095 57.3548 25.3511 57.7333C25.4927 58.1119 25.702 58.4119 25.979 58.6335C26.259 58.852 26.6037 58.9613 27.0131 58.9613ZM35.632 60V52.9091H37.0123V60H35.632ZM36.3291 51.815C36.089 51.815 35.8828 51.735 35.7105 51.5749C35.5412 51.4118 35.4566 51.2179 35.4566 50.9933C35.4566 50.7655 35.5412 50.5716 35.7105 50.4116C35.8828 50.2485 36.089 50.1669 36.3291 50.1669C36.5692 50.1669 36.7738 50.2485 36.9431 50.4116C37.1154 50.5716 37.2016 50.7655 37.2016 50.9933C37.2016 51.2179 37.1154 51.4118 36.9431 51.5749C36.7738 51.735 36.5692 51.815 36.3291 51.815ZM38.8693 60V52.9091H40.1942V54.0632H40.282C40.4297 53.6723 40.6713 53.3677 41.0067 53.1491C41.3422 52.9276 41.7438 52.8168 42.2116 52.8168C42.6856 52.8168 43.0826 52.9276 43.4027 53.1491C43.7259 53.3707 43.9644 53.6754 44.1183 54.0632H44.1921C44.3614 53.6847 44.6307 53.383 45 53.1584C45.3693 52.9306 45.8094 52.8168 46.3203 52.8168C46.9635 52.8168 47.4883 53.0183 47.8945 53.4215C48.3039 53.8247 48.5085 54.4325 48.5085 55.245V60H47.1282V55.3743C47.1282 54.8942 46.9974 54.5464 46.7358 54.331C46.4742 54.1155 46.1618 54.0078 45.7987 54.0078C45.3493 54.0078 45 54.1463 44.7507 54.4233C44.5014 54.6972 44.3768 55.0496 44.3768 55.4805V60H43.0011V55.2866C43.0011 54.9019 42.881 54.5926 42.641 54.3587C42.4009 54.1248 42.0885 54.0078 41.7038 54.0078C41.4422 54.0078 41.2006 54.0771 40.979 54.2156C40.7605 54.351 40.5836 54.5402 40.4482 54.7834C40.3158 55.0265 40.2496 55.3081 40.2496 55.6282V60H38.8693ZM52.4221 60.157C51.9728 60.157 51.5666 60.0739 51.2034 59.9077C50.8402 59.7384 50.5525 59.4937 50.3401 59.1737C50.1308 58.8536 50.0262 58.4612 50.0262 57.9964C50.0262 57.5964 50.1031 57.267 50.257 57.0085C50.4109 56.75 50.6186 56.5453 50.8802 56.3945C51.1418 56.2437 51.4342 56.1299 51.7574 56.0529C52.0805 55.976 52.4098 55.9175 52.7453 55.8775C53.17 55.8282 53.5147 55.7882 53.7794 55.7575C54.0441 55.7236 54.2364 55.6697 54.3564 55.5959C54.4765 55.522 54.5365 55.402 54.5365 55.2358V55.2035C54.5365 54.8003 54.4226 54.4879 54.1949 54.2663C53.9702 54.0447 53.6347 53.9339 53.1885 53.9339C52.7238 53.9339 52.3575 54.037 52.0898 54.2433C51.8251 54.4464 51.642 54.6726 51.5404 54.9219L50.2432 54.6264C50.397 54.1955 50.6217 53.8478 50.9172 53.5831C51.2157 53.3153 51.5589 53.1214 51.9466 53.0014C52.3344 52.8783 52.7422 52.8168 53.17 52.8168C53.4532 52.8168 53.7532 52.8506 54.0702 52.9183C54.3903 52.983 54.6888 53.103 54.9658 53.2784C55.2459 53.4538 55.4752 53.7047 55.6537 54.0309C55.8322 54.354 55.9214 54.7741 55.9214 55.2912V60H54.5734V59.0305H54.518C54.4288 59.209 54.2949 59.3845 54.1164 59.5568C53.9379 59.7292 53.7086 59.8723 53.4285 59.9862C53.1485 60.1 52.813 60.157 52.4221 60.157ZM52.7222 59.049C53.1038 59.049 53.4301 58.9736 53.7009 58.8228C53.9748 58.672 54.1826 58.475 54.3241 58.2319C54.4688 57.9857 54.5411 57.7225 54.5411 57.4425V56.5284C54.4919 56.5777 54.3965 56.6238 54.2549 56.6669C54.1164 56.7069 53.9579 56.7423 53.7794 56.7731C53.6009 56.8008 53.427 56.8269 53.2577 56.8516C53.0885 56.8731 52.9469 56.8916 52.833 56.907C52.5653 56.9408 52.3206 56.9978 52.099 57.0778C51.8805 57.1578 51.705 57.2732 51.5727 57.424C51.4434 57.5717 51.3788 57.7687 51.3788 58.0149C51.3788 58.3565 51.505 58.6151 51.7574 58.7905C52.0097 58.9628 52.3314 59.049 52.7222 59.049ZM60.733 62.8068C60.1697 62.8068 59.685 62.733 59.2788 62.5852C58.8756 62.4375 58.5463 62.2421 58.2908 61.9989C58.0354 61.7558 57.8446 61.4896 57.7184 61.2003L58.9048 60.7109C58.9879 60.8464 59.0987 60.9895 59.2372 61.1403C59.3788 61.2942 59.5696 61.425 59.8097 61.5327C60.0528 61.6404 60.3652 61.6942 60.7468 61.6942C61.27 61.6942 61.7024 61.5665 62.044 61.3111C62.3857 61.0587 62.5565 60.6555 62.5565 60.1016V58.7074H62.4688C62.3857 58.8582 62.2656 59.0259 62.1087 59.2106C61.9548 59.3952 61.7424 59.5553 61.4716 59.6907C61.2008 59.8261 60.8484 59.8938 60.4144 59.8938C59.8543 59.8938 59.3496 59.763 58.9002 59.5014C58.454 59.2367 58.1 58.8474 57.8384 58.3335C57.5799 57.8164 57.4506 57.1809 57.4506 56.4268C57.4506 55.6728 57.5784 55.0265 57.8338 54.4879C58.0923 53.9493 58.4463 53.5369 58.8956 53.2507C59.3449 52.9614 59.8543 52.8168 60.4237 52.8168C60.8638 52.8168 61.2192 52.8906 61.4901 53.0384C61.7609 53.183 61.9717 53.3523 62.1225 53.5462C62.2764 53.7401 62.3949 53.9109 62.478 54.0586H62.5795V52.9091H63.9322V60.157C63.9322 60.7663 63.7906 61.2665 63.5075 61.6573C63.2243 62.0482 62.8411 62.3375 62.358 62.5252C61.8778 62.7129 61.3362 62.8068 60.733 62.8068ZM60.7191 58.7489C61.1161 58.7489 61.4516 58.6566 61.7255 58.4719C62.0025 58.2842 62.2118 58.0165 62.3533 57.6687C62.498 57.3178 62.5703 56.8977 62.5703 56.4084C62.5703 55.9313 62.4995 55.5112 62.358 55.1481C62.2164 54.7849 62.0086 54.5018 61.7347 54.2987C61.4608 54.0924 61.1223 53.9893 60.7191 53.9893C60.3036 53.9893 59.9574 54.0971 59.6804 54.3125C59.4034 54.5249 59.1941 54.8142 59.0526 55.1804C58.9141 55.5466 58.8448 55.956 58.8448 56.4084C58.8448 56.8731 58.9156 57.2809 59.0572 57.6317C59.1987 57.9826 59.408 58.2565 59.685 58.4535C59.9651 58.6504 60.3098 58.7489 60.7191 58.7489ZM68.8395 60.1431C68.1409 60.1431 67.5392 59.9938 67.0344 59.6953C66.5328 59.3937 66.145 58.9705 65.8711 58.4258C65.6003 57.878 65.4648 57.2363 65.4648 56.5007C65.4648 55.7744 65.6003 55.1342 65.8711 54.5803C66.145 54.0263 66.5266 53.5939 67.016 53.283C67.5084 52.9722 68.0839 52.8168 68.7425 52.8168C69.1426 52.8168 69.5304 52.8829 69.9059 53.0153C70.2814 53.1476 70.6184 53.3554 70.9169 53.6385C71.2154 53.9216 71.4509 54.2894 71.6232 54.7418C71.7956 55.1912 71.8817 55.7375 71.8817 56.3807V56.87H66.245V55.8359H70.5291C70.5291 55.4728 70.4553 55.1512 70.3075 54.8711C70.1598 54.5879 69.9521 54.3648 69.6843 54.2017C69.4196 54.0386 69.1088 53.957 68.7518 53.957C68.364 53.957 68.0254 54.0524 67.7362 54.2433C67.4499 54.431 67.2283 54.6772 67.0714 54.9819C66.9175 55.2835 66.8406 55.6113 66.8406 55.9652V56.7731C66.8406 57.247 66.9237 57.6502 67.0898 57.9826C67.2591 58.315 67.4946 58.5689 67.7962 58.7443C68.0978 58.9167 68.4502 59.0028 68.8533 59.0028C69.1149 59.0028 69.3535 58.9659 69.5689 58.892C69.7843 58.8151 69.9705 58.7012 70.1275 58.5504C70.2844 58.3996 70.4045 58.2134 70.4876 57.9918L71.794 58.2273C71.6894 58.612 71.5017 58.949 71.2308 59.2383C70.9631 59.5245 70.6261 59.7476 70.2198 59.9077C69.8166 60.0646 69.3565 60.1431 68.8395 60.1431Z" fill="#585656"/>
<line opacity="0.8" x1="51" y1="35" x2="31" y2="35" stroke="#969595" stroke-width="2"/>
</svg>
