<svg width="153" height="31" viewBox="0 0 153 31" fill="none" xmlns="http://www.w3.org/2000/svg">
<g clip-path="url(#clip0_66_3)">
<rect width="153" height="31" fill="none"/>
<path d="M21.195 7.27359C21.4353 7.50741 21.1577 7.90024 20.8525 7.76208C19.4977 7.14181 17.5521 6.53127 15.6656 6.96861C12.6015 7.68443 10.7562 8.82335 9.61346 11.7431C8.47072 14.6629 6.57706 23.9182 6.57706 23.9182L6.7384 5.97441C7.37572 2.64835 10.7293 -0.201233 13.7289 1.42351C16.6563 3.00541 19.5398 5.6216 21.195 7.27359Z" fill="#DE342F"/>
<path d="M23.3516 22.606C23.0281 22.6964 22.8213 22.2617 23.0931 22.0677C24.306 21.2104 25.8024 19.8395 26.3519 17.9974C27.2397 15.0026 27.1545 12.8464 25.1624 10.4077C23.1704 7.96911 16.0014 1.72731 16.0014 1.72731L31.6354 10.8067C34.2331 13.0126 35.0708 17.3197 32.1653 19.0927C29.3329 20.825 25.6165 22.004 23.3516 22.606Z" fill="#DE342F"/>
<path d="M8.72226 16.727C8.80648 16.4048 9.2886 16.4504 9.32043 16.7814C9.45557 18.2543 9.89462 20.2315 11.22 21.6414C13.3774 23.9287 15.2954 24.9574 18.4187 24.5032C21.5419 24.0489 30.578 21.1197 30.578 21.1197L14.814 29.823C11.5883 30.9129 7.42113 29.4276 7.34164 26.0426C7.26075 22.7408 8.10585 18.9672 8.72226 16.727Z" fill="#DE342F"/>
<path d="M141 21.3444C141 21.1544 140.776 21.0004 140.5 21.0004C140.224 21.0004 140 21.1544 140 21.3444V27.6564C140 27.8464 140.224 28.0004 140.5 28.0004C140.776 28.0004 141 27.8464 141 27.6564V21.3444Z" fill="#DE342F"/>
<g clip-path="url(#clip1_66_3)">
<g clip-path="url(#clip2_66_3)">
<g clip-path="url(#clip3_66_3)">
<g clip-path="url(#clip4_66_3)">
<path d="M21.2302 12.0147L18.7051 20.1442H15.7188L19.6763 9.4325H21.5579L21.2302 12.0147ZM23.2757 20.1442L20.7416 12.0147L20.3804 9.4325H22.2833L26.2621 20.1442H23.2757ZM23.2454 16.1216V18.3483H17.7127V16.1216H23.2454ZM31.3881 9.4325V20.1442H28.6111V9.4325H31.3881ZM34.5747 9.4325V11.6622H25.4912V9.4325H34.5747ZM42.8722 13.5816V15.8053H37.4701V13.5816H42.8722ZM38.3987 9.4325V20.1442H35.6127V9.4325H38.3987ZM44.7387 9.4325V20.1442H41.9678V9.4325H44.7387ZM53.4975 17.9235V20.1442H48.0741V17.9235H53.4975ZM49.0513 9.4325V20.1442H46.2744V9.4325H49.0513ZM57.4672 9.4325V20.1442H54.6963V9.4325H57.4672ZM64.5568 9.4325V20.1442H61.7798V9.4325H64.5568ZM67.7434 9.4325V11.6622H58.6599V9.4325H67.7434ZM71.7222 9.4325V20.1442H68.9513V9.4325H71.7222ZM76.2048 9.4325V20.1442H73.4188V9.4325H76.2048ZM82.6146 9.4325L78.4871 14.9736L76.0197 17.6794L75.5007 15.055L77.0334 12.6174L79.1821 9.4325H82.6146ZM79.2944 20.1442L76.6995 15.4437L78.8634 13.8317L82.5842 20.1442H79.2944Z" fill="white"/>
</g>
</g>
</g>
</g>
<path d="M20.1655 24.1087H19.3686C19.3459 23.978 19.304 23.8622 19.2429 23.7614C19.1818 23.6591 19.1058 23.5724 19.0149 23.5014C18.924 23.4304 18.8203 23.3771 18.7038 23.3416C18.5888 23.3047 18.4645 23.2862 18.331 23.2862C18.0938 23.2862 17.8835 23.3459 17.7003 23.4652C17.517 23.5831 17.3736 23.7564 17.2699 23.9851C17.1662 24.2124 17.1143 24.4901 17.1143 24.8182C17.1143 25.152 17.1662 25.4332 17.2699 25.6619C17.375 25.8892 17.5185 26.0611 17.7003 26.1776C17.8835 26.2926 18.093 26.3501 18.3288 26.3501C18.4595 26.3501 18.5817 26.3331 18.6953 26.299C18.8104 26.2635 18.9134 26.2116 19.0043 26.1435C19.0966 26.0753 19.174 25.9915 19.2365 25.892C19.3004 25.7926 19.3445 25.679 19.3686 25.5511L20.1655 25.5554C20.1357 25.7628 20.071 25.9574 19.9716 26.1392C19.8736 26.321 19.745 26.4815 19.5859 26.6207C19.4268 26.7585 19.2408 26.8665 19.0277 26.9446C18.8146 27.0213 18.5781 27.0597 18.3182 27.0597C17.9347 27.0597 17.5923 26.9709 17.2912 26.7933C16.9901 26.6158 16.7528 26.3594 16.5795 26.0241C16.4063 25.6889 16.3196 25.2869 16.3196 24.8182C16.3196 24.348 16.407 23.946 16.5817 23.6122C16.7564 23.277 16.9943 23.0206 17.2955 22.843C17.5966 22.6655 17.9375 22.5767 18.3182 22.5767C18.5611 22.5767 18.7869 22.6108 18.9957 22.679C19.2045 22.7472 19.3906 22.8473 19.554 22.9794C19.7173 23.1101 19.8516 23.2706 19.9567 23.4609C20.0632 23.6499 20.1328 23.8658 20.1655 24.1087ZM22.2828 27.0639C21.9632 27.0639 21.6863 26.9936 21.4519 26.853C21.2175 26.7124 21.0357 26.5156 20.9064 26.2628C20.7786 26.0099 20.7147 25.7145 20.7147 25.3764C20.7147 25.0384 20.7786 24.7422 20.9064 24.4879C21.0357 24.2337 21.2175 24.0362 21.4519 23.8956C21.6863 23.755 21.9632 23.6847 22.2828 23.6847C22.6025 23.6847 22.8794 23.755 23.1138 23.8956C23.3482 24.0362 23.5293 24.2337 23.6571 24.4879C23.7864 24.7422 23.851 25.0384 23.851 25.3764C23.851 25.7145 23.7864 26.0099 23.6571 26.2628C23.5293 26.5156 23.3482 26.7124 23.1138 26.853C22.8794 26.9936 22.6025 27.0639 22.2828 27.0639ZM22.2871 26.446C22.4604 26.446 22.6053 26.3984 22.7218 26.3033C22.8382 26.2067 22.9249 26.0774 22.9817 25.9155C23.04 25.7536 23.0691 25.5732 23.0691 25.3743C23.0691 25.174 23.04 24.9929 22.9817 24.831C22.9249 24.6676 22.8382 24.5376 22.7218 24.4411C22.6053 24.3445 22.4604 24.2962 22.2871 24.2962C22.1096 24.2962 21.9618 24.3445 21.8439 24.4411C21.7275 24.5376 21.6401 24.6676 21.5819 24.831C21.525 24.9929 21.4966 25.174 21.4966 25.3743C21.4966 25.5732 21.525 25.7536 21.5819 25.9155C21.6401 26.0774 21.7275 26.2067 21.8439 26.3033C21.9618 26.3984 22.1096 26.446 22.2871 26.446ZM25.277 25.0824V27H24.5057V23.7273H25.2429V24.2834H25.2812C25.3565 24.1001 25.4766 23.9545 25.6413 23.8466C25.8075 23.7386 26.0128 23.6847 26.2571 23.6847C26.483 23.6847 26.6797 23.733 26.8473 23.8295C27.0163 23.9261 27.147 24.0661 27.2393 24.2493C27.3331 24.4325 27.3793 24.6548 27.3778 24.9162V27H26.6065V25.0355C26.6065 24.8168 26.5497 24.6456 26.4361 24.522C26.3239 24.3984 26.1683 24.3366 25.9695 24.3366C25.8345 24.3366 25.7145 24.3665 25.6094 24.4261C25.5057 24.4844 25.424 24.5689 25.3643 24.6797C25.3061 24.7905 25.277 24.9247 25.277 25.0824ZM28.9332 25.0824V27H28.1619V23.7273H28.8991V24.2834H28.9375C29.0128 24.1001 29.1328 23.9545 29.2976 23.8466C29.4638 23.7386 29.669 23.6847 29.9134 23.6847C30.1392 23.6847 30.3359 23.733 30.5036 23.8295C30.6726 23.9261 30.8033 24.0661 30.8956 24.2493C30.9893 24.4325 31.0355 24.6548 31.0341 24.9162V27H30.2628V25.0355C30.2628 24.8168 30.206 24.6456 30.0923 24.522C29.9801 24.3984 29.8246 24.3366 29.6257 24.3366C29.4908 24.3366 29.3707 24.3665 29.2656 24.4261C29.1619 24.4844 29.0803 24.5689 29.0206 24.6797C28.9624 24.7905 28.9332 24.9247 28.9332 25.0824ZM33.267 27.0639C32.9389 27.0639 32.6555 26.9957 32.4169 26.8594C32.1797 26.7216 31.9972 26.527 31.8693 26.2756C31.7415 26.0227 31.6776 25.7251 31.6776 25.3828C31.6776 25.0462 31.7415 24.7507 31.8693 24.4964C31.9986 24.2408 32.179 24.0419 32.4105 23.8999C32.642 23.7564 32.9141 23.6847 33.2266 23.6847C33.4283 23.6847 33.6186 23.7173 33.7976 23.7827C33.978 23.8466 34.1371 23.946 34.2749 24.081C34.4141 24.2159 34.5234 24.3878 34.603 24.5966C34.6825 24.804 34.7223 25.0511 34.7223 25.3381V25.5746H32.0398V25.0547H33.983C33.9815 24.907 33.9496 24.7756 33.8871 24.6605C33.8246 24.544 33.7372 24.4524 33.625 24.3857C33.5142 24.3189 33.3849 24.2855 33.2372 24.2855C33.0795 24.2855 32.9411 24.3239 32.8217 24.4006C32.7024 24.4759 32.6094 24.5753 32.5426 24.6989C32.4773 24.821 32.4439 24.9553 32.4425 25.1016V25.5554C32.4425 25.7457 32.4773 25.9091 32.5469 26.0455C32.6165 26.1804 32.7138 26.2841 32.8388 26.3565C32.9638 26.4276 33.1101 26.4631 33.2777 26.4631C33.3899 26.4631 33.4915 26.4474 33.5824 26.4162C33.6733 26.3835 33.7521 26.3359 33.8189 26.2734C33.8857 26.2109 33.9361 26.1335 33.9702 26.0412L34.6903 26.1222C34.6449 26.3125 34.5582 26.4787 34.4304 26.6207C34.304 26.7614 34.142 26.8707 33.9446 26.9489C33.7472 27.0256 33.5213 27.0639 33.267 27.0639ZM36.8024 27.0639C36.4757 27.0639 36.1951 26.9922 35.9608 26.8487C35.7278 26.7053 35.5481 26.5071 35.4217 26.2543C35.2967 26 35.2342 25.7074 35.2342 25.3764C35.2342 25.044 35.2981 24.7507 35.426 24.4964C35.5538 24.2408 35.7342 24.0419 35.9672 23.8999C36.2015 23.7564 36.4785 23.6847 36.7981 23.6847C37.0637 23.6847 37.2988 23.7337 37.5034 23.8317C37.7093 23.9283 37.8734 24.0653 37.9956 24.2429C38.1177 24.419 38.1873 24.625 38.2044 24.8608H37.4672C37.4373 24.7031 37.3663 24.5717 37.2541 24.4666C37.1433 24.3601 36.9949 24.3068 36.8088 24.3068C36.6511 24.3068 36.5126 24.3494 36.3933 24.4347C36.274 24.5185 36.1809 24.6392 36.1142 24.7969C36.0488 24.9545 36.0162 25.1435 36.0162 25.3636C36.0162 25.5866 36.0488 25.7784 36.1142 25.9389C36.1795 26.098 36.2711 26.2209 36.389 26.3075C36.5083 26.3928 36.6483 26.4354 36.8088 26.4354C36.9224 26.4354 37.024 26.4141 37.1135 26.3714C37.2044 26.3274 37.2804 26.2642 37.3414 26.1818C37.4025 26.0994 37.4444 25.9993 37.4672 25.8814H38.2044C38.1859 26.1129 38.1177 26.3182 37.9998 26.4972C37.8819 26.6747 37.7214 26.8139 37.5183 26.9148C37.3152 27.0142 37.0765 27.0639 36.8024 27.0639ZM40.4719 23.7273V24.3239H38.5906V23.7273H40.4719ZM39.055 22.9432H39.8263V26.0156C39.8263 26.1193 39.842 26.1989 39.8732 26.2543C39.9059 26.3082 39.9485 26.3452 40.0011 26.3651C40.0536 26.3849 40.1119 26.3949 40.1758 26.3949C40.2241 26.3949 40.2681 26.3913 40.3079 26.3842C40.3491 26.3771 40.3803 26.3707 40.4016 26.3651L40.5316 26.968C40.4904 26.9822 40.4315 26.9979 40.3548 27.0149C40.2795 27.032 40.1871 27.0419 40.0778 27.0447C39.8846 27.0504 39.7106 27.0213 39.5558 26.9574C39.4009 26.892 39.2781 26.7912 39.1871 26.6548C39.0977 26.5185 39.0536 26.348 39.055 26.1435V22.9432ZM41.117 27V23.7273H41.8883V27H41.117ZM41.5048 23.2628C41.3826 23.2628 41.2775 23.2223 41.1895 23.1413C41.1014 23.0589 41.0574 22.9602 41.0574 22.8452C41.0574 22.7287 41.1014 22.63 41.1895 22.549C41.2775 22.4666 41.3826 22.4254 41.5048 22.4254C41.6284 22.4254 41.7335 22.4666 41.8201 22.549C41.9082 22.63 41.9522 22.7287 41.9522 22.8452C41.9522 22.9602 41.9082 23.0589 41.8201 23.1413C41.7335 23.2223 41.6284 23.2628 41.5048 23.2628ZM43.4528 25.0824V27H42.6815V23.7273H43.4187V24.2834H43.457C43.5323 24.1001 43.6523 23.9545 43.8171 23.8466C43.9833 23.7386 44.1886 23.6847 44.4329 23.6847C44.6587 23.6847 44.8555 23.733 45.0231 23.8295C45.1921 23.9261 45.3228 24.0661 45.4151 24.2493C45.5089 24.4325 45.555 24.6548 45.5536 24.9162V27H44.7823V25.0355C44.7823 24.8168 44.7255 24.6456 44.6119 24.522C44.4996 24.3984 44.3441 24.3366 44.1452 24.3366C44.0103 24.3366 43.8903 24.3665 43.7852 24.4261C43.6815 24.4844 43.5998 24.5689 43.5401 24.6797C43.4819 24.7905 43.4528 24.9247 43.4528 25.0824ZM47.761 28.2955C47.484 28.2955 47.2461 28.2578 47.0472 28.1825C46.8484 28.1087 46.6886 28.0092 46.5678 27.8842C46.4471 27.7592 46.3633 27.6207 46.3164 27.4688L47.011 27.3004C47.0423 27.3643 47.0877 27.4276 47.1474 27.4901C47.207 27.554 47.2873 27.6065 47.3881 27.6477C47.4904 27.6903 47.619 27.7116 47.7738 27.7116C47.9925 27.7116 48.1737 27.6584 48.3171 27.5518C48.4606 27.4467 48.5323 27.2734 48.5323 27.032V26.4119H48.494C48.4542 26.4915 48.396 26.5732 48.3192 26.657C48.244 26.7408 48.1438 26.8111 48.0188 26.8679C47.8952 26.9247 47.7397 26.9531 47.5522 26.9531C47.3008 26.9531 47.0728 26.8942 46.8683 26.7763C46.6651 26.657 46.5032 26.4794 46.3825 26.2436C46.2631 26.0064 46.2035 25.7095 46.2035 25.353C46.2035 24.9936 46.2631 24.6903 46.3825 24.4432C46.5032 24.1946 46.6658 24.0064 46.8704 23.8786C47.0749 23.7493 47.3029 23.6847 47.5543 23.6847C47.7461 23.6847 47.9038 23.7173 48.0273 23.7827C48.1523 23.8466 48.2518 23.924 48.3256 24.0149C48.3995 24.1044 48.4556 24.1889 48.494 24.2685H48.5366V23.7273H49.2972V27.0533C49.2972 27.3331 49.2305 27.5646 49.0969 27.7479C48.9634 27.9311 48.7809 28.0682 48.5494 28.1591C48.3178 28.25 48.055 28.2955 47.761 28.2955ZM47.7674 26.348C47.9308 26.348 48.07 26.3082 48.185 26.2287C48.3001 26.1491 48.3874 26.0348 48.4471 25.8857C48.5067 25.7365 48.5366 25.5575 48.5366 25.3487C48.5366 25.1428 48.5067 24.9624 48.4471 24.8075C48.3888 24.6527 48.3022 24.5327 48.1871 24.4474C48.0735 24.3608 47.9336 24.3175 47.7674 24.3175C47.5955 24.3175 47.4521 24.3622 47.337 24.4517C47.2219 24.5412 47.1353 24.6641 47.0771 24.8203C47.0188 24.9751 46.9897 25.1513 46.9897 25.3487C46.9897 25.549 47.0188 25.7244 47.0771 25.875C47.1367 26.0241 47.2241 26.1406 47.3391 26.2244C47.4556 26.3068 47.5984 26.348 47.7674 26.348ZM54.1626 24.5923L53.4595 24.669C53.4396 24.598 53.4048 24.5312 53.3551 24.4688C53.3068 24.4062 53.2415 24.3558 53.1591 24.3175C53.0767 24.2791 52.9759 24.2599 52.8565 24.2599C52.696 24.2599 52.5611 24.2947 52.4517 24.3643C52.3438 24.4339 52.2905 24.5241 52.2919 24.6349C52.2905 24.7301 52.3253 24.8075 52.3963 24.8672C52.4688 24.9268 52.5881 24.9759 52.7543 25.0142L53.3125 25.1335C53.6222 25.2003 53.8523 25.3061 54.0028 25.451C54.1548 25.5959 54.2315 25.7855 54.233 26.0199C54.2315 26.2259 54.1712 26.4077 54.0518 26.5653C53.9339 26.7216 53.7699 26.8437 53.5597 26.9318C53.3494 27.0199 53.108 27.0639 52.8352 27.0639C52.4347 27.0639 52.1122 26.9801 51.8679 26.8125C51.6236 26.6435 51.478 26.4084 51.4311 26.1072L52.1832 26.0348C52.2173 26.1825 52.2898 26.294 52.4006 26.3693C52.5114 26.4446 52.6555 26.4822 52.8331 26.4822C53.0163 26.4822 53.1634 26.4446 53.2741 26.3693C53.3864 26.294 53.4425 26.201 53.4425 26.0902C53.4425 25.9964 53.4063 25.919 53.3338 25.858C53.2628 25.7969 53.152 25.75 53.0014 25.7173L52.4432 25.6001C52.1293 25.5348 51.897 25.4247 51.7464 25.2699C51.5959 25.1136 51.5213 24.9162 51.5227 24.6776C51.5213 24.4759 51.576 24.3011 51.6868 24.1534C51.799 24.0043 51.9545 23.8892 52.1534 23.8082C52.3537 23.7259 52.5845 23.6847 52.8459 23.6847C53.2294 23.6847 53.5313 23.7663 53.7514 23.9297C53.973 24.093 54.1101 24.3139 54.1626 24.5923ZM54.869 28.2273V23.7273H55.6275V24.2685H55.6722C55.712 24.1889 55.7681 24.1044 55.8406 24.0149C55.913 23.924 56.011 23.8466 56.1346 23.7827C56.2582 23.7173 56.4158 23.6847 56.6076 23.6847C56.8604 23.6847 57.0884 23.7493 57.2915 23.8786C57.4961 24.0064 57.658 24.196 57.7773 24.4474C57.8981 24.6974 57.9585 25.0043 57.9585 25.3679C57.9585 25.7273 57.8995 26.0327 57.7816 26.2841C57.6637 26.5355 57.5032 26.7273 57.3001 26.8594C57.0969 26.9915 56.8668 27.0575 56.6097 27.0575C56.4222 27.0575 56.2667 27.0263 56.1431 26.9638C56.0195 26.9013 55.9201 26.826 55.8448 26.7379C55.771 26.6484 55.7134 26.5639 55.6722 26.4844H55.6403V28.2273H54.869ZM55.6254 25.3636C55.6254 25.5753 55.6552 25.7607 55.7148 25.9197C55.7759 26.0788 55.8633 26.2031 55.9769 26.2926C56.092 26.3807 56.2312 26.4247 56.3945 26.4247C56.565 26.4247 56.7077 26.3793 56.8228 26.2884C56.9379 26.196 57.0245 26.0703 57.0827 25.9112C57.1424 25.7507 57.1722 25.5682 57.1722 25.3636C57.1722 25.1605 57.1431 24.9801 57.0849 24.8224C57.0266 24.6648 56.94 24.5412 56.8249 24.4517C56.7099 24.3622 56.5664 24.3175 56.3945 24.3175C56.2298 24.3175 56.0898 24.3608 55.9748 24.4474C55.8597 24.5341 55.7724 24.6555 55.7127 24.8118C55.6545 24.968 55.6254 25.152 55.6254 25.3636ZM60.0465 27.0639C59.7269 27.0639 59.4499 26.9936 59.2156 26.853C58.9812 26.7124 58.7994 26.5156 58.6701 26.2628C58.5423 26.0099 58.4783 25.7145 58.4783 25.3764C58.4783 25.0384 58.5423 24.7422 58.6701 24.4879C58.7994 24.2337 58.9812 24.0362 59.2156 23.8956C59.4499 23.755 59.7269 23.6847 60.0465 23.6847C60.3661 23.6847 60.6431 23.755 60.8775 23.8956C61.1119 24.0362 61.293 24.2337 61.4208 24.4879C61.5501 24.7422 61.6147 25.0384 61.6147 25.3764C61.6147 25.7145 61.5501 26.0099 61.4208 26.2628C61.293 26.5156 61.1119 26.7124 60.8775 26.853C60.6431 26.9936 60.3661 27.0639 60.0465 27.0639ZM60.0508 26.446C60.2241 26.446 60.369 26.3984 60.4854 26.3033C60.6019 26.2067 60.6886 26.0774 60.7454 25.9155C60.8036 25.7536 60.8327 25.5732 60.8327 25.3743C60.8327 25.174 60.8036 24.9929 60.7454 24.831C60.6886 24.6676 60.6019 24.5376 60.4854 24.4411C60.369 24.3445 60.2241 24.2962 60.0508 24.2962C59.8732 24.2962 59.7255 24.3445 59.6076 24.4411C59.4911 24.5376 59.4038 24.6676 59.3455 24.831C59.2887 24.9929 59.2603 25.174 59.2603 25.3743C59.2603 25.5732 59.2887 25.7536 59.3455 25.9155C59.4038 26.0774 59.4911 26.2067 59.6076 26.3033C59.7255 26.3984 59.8732 26.446 60.0508 26.446ZM62.2694 27V23.7273H63.0172V24.2727H63.0513C63.111 24.0838 63.2132 23.9382 63.3581 23.8359C63.5044 23.7322 63.6713 23.6804 63.8588 23.6804C63.9015 23.6804 63.949 23.6825 64.0016 23.6868C64.0556 23.6896 64.1003 23.6946 64.1358 23.7017V24.4112C64.1032 24.3999 64.0513 24.3899 63.9803 24.3814C63.9107 24.3714 63.8432 24.3665 63.7779 24.3665C63.6373 24.3665 63.5108 24.397 63.3986 24.4581C63.2878 24.5178 63.2005 24.6009 63.1365 24.7074C63.0726 24.8139 63.0407 24.9368 63.0407 25.076V27H62.2694ZM66.4583 23.7273V24.3239H64.5769V23.7273H66.4583ZM65.0414 22.9432H65.8127V26.0156C65.8127 26.1193 65.8283 26.1989 65.8596 26.2543C65.8922 26.3082 65.9348 26.3452 65.9874 26.3651C66.04 26.3849 66.0982 26.3949 66.1621 26.3949C66.2104 26.3949 66.2544 26.3913 66.2942 26.3842C66.3354 26.3771 66.3667 26.3707 66.388 26.3651L66.5179 26.968C66.4767 26.9822 66.4178 26.9979 66.3411 27.0149C66.2658 27.032 66.1735 27.0419 66.0641 27.0447C65.8709 27.0504 65.6969 27.0213 65.5421 26.9574C65.3873 26.892 65.2644 26.7912 65.1735 26.6548C65.084 26.5185 65.04 26.348 65.0414 26.1435V22.9432ZM69.6431 24.5923L68.94 24.669C68.9201 24.598 68.8853 24.5312 68.8356 24.4688C68.7873 24.4062 68.7219 24.3558 68.6396 24.3175C68.5572 24.2791 68.4563 24.2599 68.337 24.2599C68.1765 24.2599 68.0415 24.2947 67.9322 24.3643C67.8242 24.4339 67.771 24.5241 67.7724 24.6349C67.771 24.7301 67.8058 24.8075 67.8768 24.8672C67.9492 24.9268 68.0685 24.9759 68.2347 25.0142L68.793 25.1335C69.1026 25.2003 69.3327 25.3061 69.4833 25.451C69.6353 25.5959 69.712 25.7855 69.7134 26.0199C69.712 26.2259 69.6516 26.4077 69.5323 26.5653C69.4144 26.7216 69.2504 26.8437 69.0401 26.9318C68.8299 27.0199 68.5884 27.0639 68.3157 27.0639C67.9151 27.0639 67.5927 26.9801 67.3484 26.8125C67.104 26.6435 66.9585 26.4084 66.9116 26.1072L67.6637 26.0348C67.6978 26.1825 67.7702 26.294 67.881 26.3693C67.9918 26.4446 68.136 26.4822 68.3136 26.4822C68.4968 26.4822 68.6438 26.4446 68.7546 26.3693C68.8668 26.294 68.9229 26.201 68.9229 26.0902C68.9229 25.9964 68.8867 25.919 68.8143 25.858C68.7433 25.7969 68.6325 25.75 68.4819 25.7173L67.9237 25.6001C67.6097 25.5348 67.3775 25.4247 67.2269 25.2699C67.0763 25.1136 67.0018 24.9162 67.0032 24.6776C67.0018 24.4759 67.0565 24.3011 67.1673 24.1534C67.2795 24.0043 67.435 23.8892 67.6339 23.8082C67.8342 23.7259 68.065 23.6847 68.3263 23.6847C68.7099 23.6847 69.0117 23.7663 69.2319 23.9297C69.4535 24.093 69.5906 24.3139 69.6431 24.5923ZM71.255 26.4034L71.2273 26.6378C71.2074 26.8168 71.1719 26.9986 71.1207 27.1832C71.071 27.3693 71.0185 27.5405 70.9631 27.6967C70.9077 27.853 70.8629 27.9759 70.8288 28.0653H70.3089C70.3288 27.9787 70.3558 27.8608 70.3899 27.7116C70.4254 27.5625 70.4595 27.3949 70.4922 27.2088C70.5249 27.0227 70.5469 26.8338 70.5582 26.642L70.5732 26.4034H71.255ZM74.1479 27L73.2232 23.7273H74.0094L74.5847 26.0284H74.6145L75.2026 23.7273H75.9803L76.5684 26.0156H76.6003L77.1671 23.7273H77.9554L77.0286 27H76.2253L75.6117 24.7884H75.5669L74.9533 27H74.1479ZM79.8491 27.0639C79.521 27.0639 79.2376 26.9957 78.9989 26.8594C78.7617 26.7216 78.5792 26.527 78.4513 26.2756C78.3235 26.0227 78.2596 25.7251 78.2596 25.3828C78.2596 25.0462 78.3235 24.7507 78.4513 24.4964C78.5806 24.2408 78.761 24.0419 78.9925 23.8999C79.2241 23.7564 79.4961 23.6847 79.8086 23.6847C80.0103 23.6847 80.2006 23.7173 80.3796 23.7827C80.56 23.8466 80.7191 23.946 80.8569 24.081C80.9961 24.2159 81.1055 24.3878 81.185 24.5966C81.2646 24.804 81.3043 25.0511 81.3043 25.3381V25.5746H78.6218V25.0547H80.565C80.5636 24.907 80.5316 24.7756 80.4691 24.6605C80.4066 24.544 80.3192 24.4524 80.207 24.3857C80.0962 24.3189 79.967 24.2855 79.8192 24.2855C79.6616 24.2855 79.5231 24.3239 79.4038 24.4006C79.2844 24.4759 79.1914 24.5753 79.1246 24.6989C79.0593 24.821 79.0259 24.9553 79.0245 25.1016V25.5554C79.0245 25.7457 79.0593 25.9091 79.1289 26.0455C79.1985 26.1804 79.2958 26.2841 79.4208 26.3565C79.5458 26.4276 79.6921 26.4631 79.8597 26.4631C79.9719 26.4631 80.0735 26.4474 80.1644 26.4162C80.2553 26.3835 80.3342 26.3359 80.4009 26.2734C80.4677 26.2109 80.5181 26.1335 80.5522 26.0412L81.2724 26.1222C81.2269 26.3125 81.1403 26.4787 81.0124 26.6207C80.886 26.7614 80.7241 26.8707 80.5266 26.9489C80.3292 27.0256 80.1033 27.0639 79.8491 27.0639ZM82.7282 22.6364V27H81.9569V22.6364H82.7282ZM84.2926 22.6364V27H83.5213V22.6364H84.2926ZM85.8571 25.0824V27H85.0858V23.7273H85.823V24.2834H85.8613C85.9366 24.1001 86.0566 23.9545 86.2214 23.8466C86.3876 23.7386 86.5929 23.6847 86.8372 23.6847C87.063 23.6847 87.2598 23.733 87.4274 23.8295C87.5964 23.9261 87.7271 24.0661 87.8194 24.2493C87.9132 24.4325 87.9593 24.6548 87.9579 24.9162V27H87.1866V25.0355C87.1866 24.8168 87.1298 24.6456 87.0162 24.522C86.9039 24.3984 86.7484 24.3366 86.5495 24.3366C86.4146 24.3366 86.2946 24.3665 86.1895 24.4261C86.0858 24.4844 86.0041 24.5689 85.9444 24.6797C85.8862 24.7905 85.8571 24.9247 85.8571 25.0824ZM90.1909 27.0639C89.8627 27.0639 89.5794 26.9957 89.3407 26.8594C89.1035 26.7216 88.921 26.527 88.7931 26.2756C88.6653 26.0227 88.6014 25.7251 88.6014 25.3828C88.6014 25.0462 88.6653 24.7507 88.7931 24.4964C88.9224 24.2408 89.1028 24.0419 89.3343 23.8999C89.5659 23.7564 89.8379 23.6847 90.1504 23.6847C90.3521 23.6847 90.5424 23.7173 90.7214 23.7827C90.9018 23.8466 91.0609 23.946 91.1987 24.081C91.3379 24.2159 91.4473 24.3878 91.5268 24.5966C91.6064 24.804 91.6461 25.0511 91.6461 25.3381V25.5746H88.9636V25.0547H90.9068C90.9054 24.907 90.8734 24.7756 90.8109 24.6605C90.7484 24.544 90.661 24.4524 90.5488 24.3857C90.438 24.3189 90.3088 24.2855 90.161 24.2855C90.0034 24.2855 89.8649 24.3239 89.7456 24.4006C89.6262 24.4759 89.5332 24.5753 89.4664 24.6989C89.4011 24.821 89.3677 24.9553 89.3663 25.1016V25.5554C89.3663 25.7457 89.4011 25.9091 89.4707 26.0455C89.5403 26.1804 89.6376 26.2841 89.7626 26.3565C89.8876 26.4276 90.0339 26.4631 90.2015 26.4631C90.3137 26.4631 90.4153 26.4474 90.5062 26.4162C90.5971 26.3835 90.676 26.3359 90.7427 26.2734C90.8095 26.2109 90.8599 26.1335 90.894 26.0412L91.6142 26.1222C91.5687 26.3125 91.4821 26.4787 91.3542 26.6207C91.2278 26.7614 91.0659 26.8707 90.8684 26.9489C90.671 27.0256 90.4451 27.0639 90.1909 27.0639ZM94.8853 24.5923L94.1822 24.669C94.1623 24.598 94.1275 24.5312 94.0778 24.4688C94.0295 24.4062 93.9641 24.3558 93.8817 24.3175C93.7994 24.2791 93.6985 24.2599 93.5792 24.2599C93.4187 24.2599 93.2837 24.2947 93.1744 24.3643C93.0664 24.4339 93.0131 24.5241 93.0146 24.6349C93.0131 24.7301 93.0479 24.8075 93.119 24.8672C93.1914 24.9268 93.3107 24.9759 93.4769 25.0142L94.0352 25.1335C94.3448 25.2003 94.5749 25.3061 94.7255 25.451C94.8775 25.5959 94.9542 25.7855 94.9556 26.0199C94.9542 26.2259 94.8938 26.4077 94.7745 26.5653C94.6566 26.7216 94.4925 26.8437 94.2823 26.9318C94.0721 27.0199 93.8306 27.0639 93.5579 27.0639C93.1573 27.0639 92.8349 26.9801 92.5906 26.8125C92.3462 26.6435 92.2006 26.4084 92.1538 26.1072L92.9059 26.0348C92.94 26.1825 93.0124 26.294 93.1232 26.3693C93.234 26.4446 93.3782 26.4822 93.5558 26.4822C93.739 26.4822 93.886 26.4446 93.9968 26.3693C94.109 26.294 94.1651 26.201 94.1651 26.0902C94.1651 25.9964 94.1289 25.919 94.0565 25.858C93.9854 25.7969 93.8746 25.75 93.7241 25.7173L93.1658 25.6001C92.8519 25.5348 92.6197 25.4247 92.4691 25.2699C92.3185 25.1136 92.244 24.9162 92.2454 24.6776C92.244 24.4759 92.2987 24.3011 92.4094 24.1534C92.5217 24.0043 92.6772 23.8892 92.8761 23.8082C93.0763 23.7259 93.3072 23.6847 93.5685 23.6847C93.9521 23.6847 94.2539 23.7663 94.4741 23.9297C94.6957 24.093 94.8327 24.3139 94.8853 24.5923ZM98.1783 24.5923L97.4751 24.669C97.4553 24.598 97.4205 24.5312 97.3707 24.4688C97.3224 24.4062 97.2571 24.3558 97.1747 24.3175C97.0923 24.2791 96.9915 24.2599 96.8722 24.2599C96.7116 24.2599 96.5767 24.2947 96.4673 24.3643C96.3594 24.4339 96.3061 24.5241 96.3075 24.6349C96.3061 24.7301 96.3409 24.8075 96.4119 24.8672C96.4844 24.9268 96.6037 24.9759 96.7699 25.0142L97.3281 25.1335C97.6378 25.2003 97.8679 25.3061 98.0185 25.451C98.1705 25.5959 98.2472 25.7855 98.2486 26.0199C98.2472 26.2259 98.1868 26.4077 98.0675 26.5653C97.9496 26.7216 97.7855 26.8437 97.5753 26.9318C97.3651 27.0199 97.1236 27.0639 96.8509 27.0639C96.4503 27.0639 96.1278 26.9801 95.8835 26.8125C95.6392 26.6435 95.4936 26.4084 95.4467 26.1072L96.1989 26.0348C96.233 26.1825 96.3054 26.294 96.4162 26.3693C96.527 26.4446 96.6712 26.4822 96.8487 26.4822C97.032 26.4822 97.179 26.4446 97.2898 26.3693C97.402 26.294 97.4581 26.201 97.4581 26.0902C97.4581 25.9964 97.4219 25.919 97.3494 25.858C97.2784 25.7969 97.1676 25.75 97.017 25.7173L96.4588 25.6001C96.1449 25.5348 95.9126 25.4247 95.7621 25.2699C95.6115 25.1136 95.5369 24.9162 95.5384 24.6776C95.5369 24.4759 95.5916 24.3011 95.7024 24.1534C95.8146 24.0043 95.9702 23.8892 96.169 23.8082C96.3693 23.7259 96.6001 23.6847 96.8615 23.6847C97.245 23.6847 97.5469 23.7663 97.767 23.9297C97.9886 24.093 98.1257 24.3139 98.1783 24.5923ZM99.7901 26.4034L99.7624 26.6378C99.7425 26.8168 99.707 26.9986 99.6559 27.1832C99.6062 27.3693 99.5536 27.5405 99.4982 27.6967C99.4428 27.853 99.3981 27.9759 99.364 28.0653H98.8441C98.864 27.9787 98.891 27.8608 98.9251 27.7116C98.9606 27.5625 98.9947 27.3949 99.0273 27.2088C99.06 27.0227 99.082 26.8338 99.0934 26.642L99.1083 26.4034H99.7901ZM102.949 27.0661C102.742 27.0661 102.555 27.0291 102.389 26.9553C102.224 26.88 102.094 26.7692 101.997 26.6229C101.902 26.4766 101.854 26.2962 101.854 26.0817C101.854 25.897 101.888 25.7443 101.956 25.6236C102.025 25.5028 102.118 25.4062 102.236 25.3338C102.354 25.2614 102.486 25.2067 102.634 25.1697C102.783 25.1314 102.937 25.1037 103.096 25.0866C103.288 25.0668 103.444 25.049 103.563 25.0334C103.682 25.0163 103.769 24.9908 103.823 24.9567C103.878 24.9212 103.906 24.8665 103.906 24.7926V24.7798C103.906 24.6193 103.858 24.495 103.763 24.407C103.668 24.3189 103.531 24.2749 103.352 24.2749C103.163 24.2749 103.013 24.3161 102.903 24.3984C102.793 24.4808 102.719 24.5781 102.681 24.6903L101.961 24.5881C102.018 24.3892 102.111 24.223 102.242 24.0895C102.373 23.9545 102.532 23.8537 102.721 23.7869C102.91 23.7188 103.119 23.6847 103.348 23.6847C103.506 23.6847 103.662 23.7031 103.819 23.7401C103.975 23.777 104.118 23.8381 104.247 23.9233C104.376 24.0071 104.48 24.1214 104.558 24.2663C104.638 24.4112 104.677 24.5923 104.677 24.8097V27H103.936V26.5504H103.91C103.863 26.6413 103.797 26.7266 103.712 26.8061C103.628 26.8842 103.523 26.9474 103.395 26.9957C103.268 27.0426 103.12 27.0661 102.949 27.0661ZM103.15 26.4993C103.305 26.4993 103.439 26.4687 103.552 26.4077C103.666 26.3452 103.753 26.2628 103.814 26.1605C103.877 26.0582 103.908 25.9467 103.908 25.826V25.4403C103.884 25.4602 103.843 25.4787 103.785 25.4957C103.728 25.5128 103.664 25.5277 103.593 25.5405C103.522 25.5533 103.452 25.5646 103.382 25.5746C103.312 25.5845 103.252 25.593 103.201 25.6001C103.086 25.6158 102.983 25.6413 102.892 25.6768C102.801 25.7124 102.729 25.7621 102.677 25.826C102.624 25.8885 102.598 25.9695 102.598 26.0689C102.598 26.2109 102.65 26.3182 102.753 26.3906C102.857 26.4631 102.989 26.4993 103.15 26.4993ZM106.224 25.0824V27H105.453V23.7273H106.19V24.2834H106.229C106.304 24.1001 106.424 23.9545 106.589 23.8466C106.755 23.7386 106.96 23.6847 107.204 23.6847C107.43 23.6847 107.627 23.733 107.795 23.8295C107.964 23.9261 108.094 24.0661 108.187 24.2493C108.28 24.4325 108.327 24.6548 108.325 24.9162V27H107.554V25.0355C107.554 24.8168 107.497 24.6456 107.383 24.522C107.271 24.3984 107.116 24.3366 106.917 24.3366C106.782 24.3366 106.662 24.3665 106.557 24.4261C106.453 24.4844 106.371 24.5689 106.312 24.6797C106.253 24.7905 106.224 24.9247 106.224 25.0824ZM110.324 27.0575C110.067 27.0575 109.836 26.9915 109.633 26.8594C109.43 26.7273 109.27 26.5355 109.152 26.2841C109.034 26.0327 108.975 25.7273 108.975 25.3679C108.975 25.0043 109.035 24.6974 109.154 24.4474C109.275 24.196 109.437 24.0064 109.642 23.8786C109.846 23.7493 110.074 23.6847 110.326 23.6847C110.518 23.6847 110.675 23.7173 110.799 23.7827C110.922 23.8466 111.02 23.924 111.093 24.0149C111.165 24.1044 111.221 24.1889 111.261 24.2685H111.293V22.6364H112.067V27H111.308V26.4844H111.261C111.221 26.5639 111.164 26.6484 111.089 26.7379C111.013 26.826 110.914 26.9013 110.79 26.9638C110.667 27.0263 110.511 27.0575 110.324 27.0575ZM110.539 26.4247C110.702 26.4247 110.841 26.3807 110.956 26.2926C111.072 26.2031 111.159 26.0788 111.219 25.9197C111.278 25.7607 111.308 25.5753 111.308 25.3636C111.308 25.152 111.278 24.968 111.219 24.8118C111.16 24.6555 111.074 24.5341 110.959 24.4474C110.845 24.3608 110.705 24.3175 110.539 24.3175C110.367 24.3175 110.224 24.3622 110.108 24.4517C109.993 24.5412 109.907 24.6648 109.849 24.8224C109.79 24.9801 109.761 25.1605 109.761 25.3636C109.761 25.5682 109.79 25.7507 109.849 25.9112C109.908 26.0703 109.996 26.196 110.111 26.2884C110.227 26.3793 110.37 26.4247 110.539 26.4247ZM115.148 22.6364V27H114.377V22.6364H115.148ZM115.941 27V23.7273H116.713V27H115.941ZM116.329 23.2628C116.207 23.2628 116.102 23.2223 116.014 23.1413C115.926 23.0589 115.882 22.9602 115.882 22.8452C115.882 22.7287 115.926 22.63 116.014 22.549C116.102 22.4666 116.207 22.4254 116.329 22.4254C116.453 22.4254 116.558 22.4666 116.644 22.549C116.732 22.63 116.776 22.7287 116.776 22.8452C116.776 22.9602 116.732 23.0589 116.644 23.1413C116.558 23.2223 116.453 23.2628 116.329 23.2628ZM119.163 23.7273V24.3239H117.229V23.7273H119.163ZM117.712 27V23.4183C117.712 23.1982 117.758 23.0149 117.849 22.8686C117.941 22.7223 118.065 22.6129 118.219 22.5405C118.374 22.468 118.546 22.4318 118.735 22.4318C118.869 22.4318 118.987 22.4425 119.091 22.4638C119.195 22.4851 119.271 22.5043 119.321 22.5213L119.168 23.1179C119.135 23.108 119.094 23.098 119.044 23.0881C118.994 23.0767 118.939 23.071 118.878 23.071C118.734 23.071 118.633 23.1058 118.573 23.1754C118.515 23.2436 118.486 23.3416 118.486 23.4695V27H117.712ZM121.093 27.0639C120.765 27.0639 120.482 26.9957 120.243 26.8594C120.006 26.7216 119.823 26.527 119.695 26.2756C119.568 26.0227 119.504 25.7251 119.504 25.3828C119.504 25.0462 119.568 24.7507 119.695 24.4964C119.825 24.2408 120.005 24.0419 120.237 23.8999C120.468 23.7564 120.74 23.6847 121.053 23.6847C121.254 23.6847 121.445 23.7173 121.624 23.7827C121.804 23.8466 121.963 23.946 122.101 24.081C122.24 24.2159 122.35 24.3878 122.429 24.5966C122.509 24.804 122.548 25.0511 122.548 25.3381V25.5746H119.866V25.0547H121.809C121.808 24.907 121.776 24.7756 121.713 24.6605C121.651 24.544 121.563 24.4524 121.451 24.3857C121.34 24.3189 121.211 24.2855 121.063 24.2855C120.906 24.2855 120.767 24.3239 120.648 24.4006C120.529 24.4759 120.436 24.5753 120.369 24.6989C120.303 24.821 120.27 24.9553 120.269 25.1016V25.5554C120.269 25.7457 120.303 25.9091 120.373 26.0455C120.443 26.1804 120.54 26.2841 120.665 26.3565C120.79 26.4276 120.936 26.4631 121.104 26.4631C121.216 26.4631 121.318 26.4474 121.409 26.4162C121.499 26.3835 121.578 26.3359 121.645 26.2734C121.712 26.2109 121.762 26.1335 121.796 26.0412L122.517 26.1222C122.471 26.3125 122.384 26.4787 122.257 26.6207C122.13 26.7614 121.968 26.8707 121.771 26.9489C121.573 27.0256 121.347 27.0639 121.093 27.0639ZM127.276 24.5923L126.573 24.669C126.553 24.598 126.518 24.5312 126.468 24.4688C126.42 24.4062 126.355 24.3558 126.272 24.3175C126.19 24.2791 126.089 24.2599 125.97 24.2599C125.809 24.2599 125.674 24.2947 125.565 24.3643C125.457 24.4339 125.404 24.5241 125.405 24.6349C125.404 24.7301 125.439 24.8075 125.51 24.8672C125.582 24.9268 125.701 24.9759 125.868 25.0142L126.426 25.1335C126.735 25.2003 126.966 25.3061 127.116 25.451C127.268 25.5959 127.345 25.7855 127.346 26.0199C127.345 26.2259 127.284 26.4077 127.165 26.5653C127.047 26.7216 126.883 26.8437 126.673 26.9318C126.463 27.0199 126.221 27.0639 125.949 27.0639C125.548 27.0639 125.225 26.9801 124.981 26.8125C124.737 26.6435 124.591 26.4084 124.544 26.1072L125.297 26.0348C125.331 26.1825 125.403 26.294 125.514 26.3693C125.625 26.4446 125.769 26.4822 125.946 26.4822C126.13 26.4822 126.277 26.4446 126.387 26.3693C126.5 26.294 126.556 26.201 126.556 26.0902C126.556 25.9964 126.52 25.919 126.447 25.858C126.376 25.7969 126.265 25.75 126.115 25.7173L125.556 25.6001C125.243 25.5348 125.01 25.4247 124.86 25.2699C124.709 25.1136 124.635 24.9162 124.636 24.6776C124.635 24.4759 124.689 24.3011 124.8 24.1534C124.912 24.0043 125.068 23.8892 125.267 23.8082C125.467 23.7259 125.698 23.6847 125.959 23.6847C126.343 23.6847 126.645 23.7663 126.865 23.9297C127.086 24.093 127.223 24.3139 127.276 24.5923ZM129.616 23.7273V24.3239H127.735V23.7273H129.616ZM128.2 22.9432H128.971V26.0156C128.971 26.1193 128.987 26.1989 129.018 26.2543C129.05 26.3082 129.093 26.3452 129.146 26.3651C129.198 26.3849 129.256 26.3949 129.32 26.3949C129.369 26.3949 129.413 26.3913 129.452 26.3842C129.494 26.3771 129.525 26.3707 129.546 26.3651L129.676 26.968C129.635 26.9822 129.576 26.9979 129.499 27.0149C129.424 27.032 129.332 27.0419 129.222 27.0447C129.029 27.0504 128.855 27.0213 128.7 26.9574C128.545 26.892 128.423 26.7912 128.332 26.6548C128.242 26.5185 128.198 26.348 128.2 26.1435V22.9432ZM130.741 28.2273C130.636 28.2273 130.539 28.2188 130.449 28.2017C130.361 28.1861 130.291 28.1676 130.238 28.1463L130.417 27.5455C130.529 27.5781 130.629 27.5938 130.718 27.5923C130.806 27.5909 130.883 27.5632 130.95 27.5092C131.018 27.4567 131.075 27.3686 131.122 27.245L131.188 27.0682L130.002 23.7273H130.82L131.574 26.1989H131.608L132.365 23.7273H133.185L131.874 27.3963C131.813 27.5696 131.732 27.718 131.632 27.8416C131.531 27.9666 131.407 28.0618 131.261 28.1271C131.116 28.1939 130.943 28.2273 130.741 28.2273ZM134.49 22.6364V27H133.719V22.6364H134.49ZM136.732 27.0639C136.404 27.0639 136.12 26.9957 135.882 26.8594C135.645 26.7216 135.462 26.527 135.334 26.2756C135.206 26.0227 135.142 25.7251 135.142 25.3828C135.142 25.0462 135.206 24.7507 135.334 24.4964C135.463 24.2408 135.644 24.0419 135.875 23.8999C136.107 23.7564 136.379 23.6847 136.691 23.6847C136.893 23.6847 137.083 23.7173 137.262 23.7827C137.443 23.8466 137.602 23.946 137.74 24.081C137.879 24.2159 137.988 24.3878 138.068 24.5966C138.147 24.804 138.187 25.0511 138.187 25.3381V25.5746H135.505V25.0547H137.448C137.446 24.907 137.414 24.7756 137.352 24.6605C137.289 24.544 137.202 24.4524 137.09 24.3857C136.979 24.3189 136.85 24.2855 136.702 24.2855C136.544 24.2855 136.406 24.3239 136.287 24.4006C136.167 24.4759 136.074 24.5753 136.007 24.6989C135.942 24.821 135.909 24.9553 135.907 25.1016V25.5554C135.907 25.7457 135.942 25.9091 136.012 26.0455C136.081 26.1804 136.179 26.2841 136.304 26.3565C136.429 26.4276 136.575 26.4631 136.743 26.4631C136.855 26.4631 136.956 26.4474 137.047 26.4162C137.138 26.3835 137.217 26.3359 137.284 26.2734C137.35 26.2109 137.401 26.1335 137.435 26.0412L138.155 26.1222C138.11 26.3125 138.023 26.4787 137.895 26.6207C137.769 26.7614 137.607 26.8707 137.409 26.9489C137.212 27.0256 136.986 27.0639 136.732 27.0639Z" fill="#F0F2F2"/>
</g>
<defs>
<clipPath id="clip0_66_3">
<rect width="153" height="31" fill="white"/>
</clipPath>
<clipPath id="clip1_66_3">
<rect width="66.9061" height="15.5025" fill="white" transform="translate(14.7134 9.4325)"/>
</clipPath>
<clipPath id="clip2_66_3">
<rect width="66.9061" height="15.5025" fill="white" transform="translate(14.7134 9.4325)"/>
</clipPath>
<clipPath id="clip3_66_3">
<rect width="66.9061" height="10.7117" fill="white" transform="translate(14.7134 9.4325)"/>
</clipPath>
<clipPath id="clip4_66_3">
<rect width="66.9061" height="10.7117" fill="white" transform="translate(14.7134 9.4325)"/>
</clipPath>
</defs>
</svg>
